<?xml version="1.0" encoding="UTF-8"?>
<svg version="1.1" viewBox="0 0 1520 1440" width="380" height="360" xmlns="http://www.w3.org/2000/svg">
<!-- <path transform="translate(0)" d="m0 0h1520v1440h-1520z" fill="#294C87"/> -->
<path transform="translate(670,117)" d="m0 0h60l36 3 36 5 34 7 35 9 15 5 1 1v76l-3 1-105 1-1 108h109v108h108l1 1v107l-2 2h-107v107l-1 1h-108v108l-1 1h-107v109h93l15 1v107h66l43 1v108h92l30 1 2 10 6 41 8 43 8 37 9 35 8 29 1 4v11l-4 8-7 7-10 4h-420l-8-4-7-8-5-15-11-53-9-36-8-26-8-20-9-16-9-10-12-7-14-5-15-3-9-1h-40l-85 8h-16l-29-4-13-4-17-9-8-7-8-11-8-16-5-16-5-27-9-77-6-29-7-21-8-16-10-14-8-8-13-10-17-12-11-9-8-10-4-9-1-5v-13l4-10 7-11 12-14 10-11 9-11 10-12 13-19 8-14 8-17 7-21 4-22 1-10v-36l-5-74v-32l2-25 5-32 7-28 11-31 13-28 13-23 13-19 9-12 8-10 10-11 7-8 20-20 8-7 13-11 19-14 13-9 19-12 18-10 17-9 20-9 28-11 24-8 29-8 37-8 38-5z" fill="#2A4D88"/>
<path transform="translate(810,768)" d="m0 0h109v108l-1 1-69 1h-38l-2-1v-108z" fill="#2A4D88"/>
<path transform="translate(925,636)" d="m0 0h110v108l-1 1h-109z" fill="#2A4D88"/>
<path transform="translate(942,924)" d="m0 0h108l1 1v108l-23 1h-85l-1-1z" fill="#2A4D88"/>
<path transform="translate(1143,992)" d="m0 0h75l15 1v77l-1 31-107 1-2-1v-108z" fill="#2A4D88"/>
<path transform="translate(1109,531)" d="m0 0h35l21 1v109h-109v-109z" fill="#2A4D88"/>
<path transform="translate(1049,296)" d="m0 0h109v109h-109l-1-77v-31z" fill="#2A4D88"/>
<path transform="translate(1207,402)" d="m0 0h108l2 4-1 105-108 1-1-1z" fill="#2A4D88"/>
<path transform="translate(913,218)" d="m0 0h109v109h-109z" fill="#2A4D88"/>
<path transform="translate(1046,781)" d="m0 0h109v108l-1 1h-108z" fill="#2A4D88"/>
<path transform="translate(625,521)" d="m0 0h78v109h-107l-1-1v-107z" fill="#CBD8FC"/>
<path transform="translate(623,1012)" d="m0 0h109v107l-10 1h-99z" fill="#CBD8FC"/>
<path transform="translate(676,375)" d="m0 0h108v108h-108z" fill="#CBD8FC"/>
<path transform="translate(483,333)" d="m0 0h84v108l-2 1-106-1v-107z" fill="#CBD8FC"/>
<path transform="translate(623,1012)" d="m0 0h109v107l-10 1h-99zm84 3-73 1-5 5-2 10-1 18v3 12l-1 4v7l1 5 1 18 1 15 2 1-1 4h95l1-4-1-2 4-2 2-10v-75l-6-7-5-2z" fill="#1B3E7C"/>
<path transform="translate(625,521)" d="m0 0h78v109h-107l1-3 1-2h3v2h84l3-2 4-1 4-6h2l1-10v-68l-3-9-4-2-3-1-14-1-9-2-1 2h-59l-3 1-2 4h-2v2h-2v20h-1v-32z" fill="#1B3D7C"/>
<path transform="translate(676,375)" d="m0 0h108v108h-108zm43 3-7 1h-23l-8 3-3 7v91l7 2 93-1-2-1 4-11 2-14v-54l-1-12-3-6-13-4h-41z" fill="#183A7A"/>
<path transform="translate(483,333)" d="m0 0h84v108l-2 1-94-1v-1h89l-3-1v-2l2-1-1-2 2-4h2l1-4v-61l-1-8v-8h-2l-2-5-6-3-11-1-14-1-15 1h-28l-14-1-3 1-1 2h-2l-1 4h-2v12h-1v-24z" fill="#193B7B"/>
<path transform="translate(609,1324)" d="m0 0 270 1v1l-14 1-2 1v-2l-10 1h-6v1h-32-2-148-2-6-3-33v-2h-12z" fill="#173979"/>
<path transform="translate(670,769)" d="m0 0h106v1l-14 1-11 1-27 1h-18l-26-1-1 3h-3l-2 4-2 6v82l5 3v3l4 1h67v1l24 1v1h-102z" fill="#173979"/>
<path transform="translate(779,659)" d="m0 0h108l-2 1v2l-15 2h-49l-17 1h-16l-4 4-2 4-1 24-1 19h-1z" fill="#173979"/>
<path transform="translate(918,876)" d="m0 0h2l-1 3-13 1-4 3-27 1-56-1-9-2-1-3 40-1z" fill="#193B7A"/>
<path transform="translate(981,550)" d="m0 0h15l1 2h-3v2l-8 1-23 1h-38l-5 1-4-1-19 1-4 1-2 6h-1l-1 24h-1v-37z" fill="#173979"/>
<path transform="translate(778,877)" d="m0 0 2 2 1 16v22l1 8v16l-1 3 1 5h-2l2 10v13l4 6v2l3 2v2l44-1 37 1v1h-92z" fill="#1A3C7B"/>
<path transform="translate(1051,1032)" d="m0 0v3l-11 1-2 2-8 1h-50l-7-1-13 1-10-1-7-1-2-3 87-1z" fill="#173A79"/>
<path transform="translate(1045,890)" d="m0 0h98l5 1-1 3-6 1h-73l-8-1h-8l-7-3z" fill="#183A7A"/>
<path transform="translate(730,1032)" d="m0 0h1l1 87-10 1-98-1v-44l3 1 1 26 1 9-1 2 3 1-1 3 94 1v-6l4-4 1-8v-27z" fill="#173979"/>
<path transform="translate(174,849)" d="m0 0 5 1 16 11 13 11 9 10 7 11 3 5-1 4-5-5-4-6-2-6-4-2v-2l-4-2-4-4v-2h-2v-2h-2v-2l-4-2-3-2v-2l-5-2-6-4-5-4v-2h-2z" fill="#1A3C7B"/>
<path transform="translate(779,224)" d="m0 0h99l3 2-67 1h-24l-6 3-2 2-1 11-1 25h-1z" fill="#1D3F7D"/>
<path transform="translate(925,745)" d="m0 0 108 1v1h-17l-1 2-2 2h-21l-17-1-6-1v-1h-41l-3-1z" fill="#173979"/>
<path transform="translate(672,867)" d="m0 0 5 3v3l4 1h67v1l24 1v1h-102v-8h2z" fill="#1D3F7E"/>
<path transform="translate(912,327)" d="m0 0 106 1v1l-14 1h-9l-5 1h-49-4l-9-1h-13z" fill="#173979"/>
<path transform="translate(781,956)" d="m0 0 1 3v13l4 6v2l3 2v2l44-1 37 1v1h-91v-28z" fill="#173979"/>
<path transform="translate(1124,1102)" d="m0 0h98v1l-13 1-7-1v2h-69l-9-2z" fill="#173979"/>
<path transform="translate(924,644)" d="m0 0h1v94l-2-4-1-9v-65z" fill="#173979"/>
<path transform="translate(779,269)" d="m0 0h1v57l4 1 3 3 86 1v1h-94z" fill="#173979"/>
<path transform="translate(1206,511)" d="m0 0 108 1-4 2-27 1h-12l-7-1-53-1-1 2-4-2z" fill="#173979"/>
<path transform="translate(518,1127)" d="m0 0 6 1 13 8 7 7 4 6v2h-4l-3-5-3-4 1-2-9-3v-2l-3-1-2-4-5-1z" fill="#1C3E7D"/>
<path transform="translate(598,625)" d="m0 0h3v2l86 1v1h-91l1-2z" fill="#173979"/>
<path transform="translate(1047,323)" d="m0 0h1v74h-1l-1-29v-24l-1-4 1-8z" fill="#173979"/>
<path transform="translate(724,874)" d="m0 0h24v1l24 1v1h-51v-2z" fill="#173979"/>
<path transform="translate(285,1111)" d="m0 0 4 1 19 9v2l-7-1-12-6-4-3z" fill="#1A3C7B"/>
<path transform="translate(414,1122)" d="m0 0h8l-1 3-11 1-11-1 3-2z" fill="#1C3E7D"/>
<path transform="translate(309,1123)" d="m0 0 13 1 14 2 1 2h-8l-17-3z" fill="#1D407E"/>
<path transform="translate(373,1126)" d="m0 0h16v1l-16 2h-12v-2z" fill="#1D3F7D"/>
<path transform="translate(1045,890)" d="m0 0h15l-2 1-1 3-9-1z" fill="#1D407E"/>
<path transform="translate(784,1325)" d="m0 0h12l-1 3h-12z" fill="#193B7A"/>
<path transform="translate(271,1098)" d="m0 0 5 2 5 7-2 1-6-5z" fill="#193B7A"/>
<path transform="translate(540,1143)" d="m0 0h4l4 6v2h-4l-3-5z" fill="#193B7A"/>
</svg>
