<svg width="16" height="16" viewBox="0 0 16 16" fill="none" xmlns="http://www.w3.org/2000/svg">
<rect width="16" height="16" rx="4" fill="#31326A"/>
<path d="M7.62617 6.5H8.19781V9.46736H7.62617V6.5Z" fill="#98E0EA"/>
<path fill-rule="evenodd" clip-rule="evenodd" d="M4.73513 7.22209V7.35914C4.56402 7.25929 4.36547 7.20159 4.1532 7.20159C3.51753 7.20196 3 7.71715 3 8.35079C3 8.98443 3.51753 9.5 4.15358 9.5C4.36585 9.5 4.5644 9.44229 4.73551 9.34244V9.46735H5.30716V7.22209H4.73513ZM4.1532 8.93052C3.83232 8.93052 3.57126 8.67046 3.57126 8.35079C3.57126 8.03113 3.83232 7.77106 4.1532 7.77106C4.47408 7.77106 4.73513 8.03113 4.73513 8.35079C4.73513 8.67046 4.47408 8.93052 4.1532 8.93052Z" fill="#98E0EA"/>
<path fill-rule="evenodd" clip-rule="evenodd" d="M10.4402 7.22209V7.35914C10.269 7.25929 10.0705 7.20159 9.85823 7.20159C9.22218 7.20159 8.70465 7.71715 8.70465 8.35079C8.70465 8.98443 9.22218 9.5 9.85823 9.5C10.0705 9.5 10.269 9.44229 10.4402 9.34244V9.46735H11.0118V7.22209H10.4402ZM9.85823 8.93052C9.53734 8.93052 9.27629 8.67046 9.27629 8.35079C9.27629 8.03113 9.53734 7.77106 9.85823 7.77106C10.1791 7.77106 10.4402 8.03113 10.4402 8.35079C10.4402 8.67046 10.1791 8.93052 9.85823 8.93052Z" fill="#98E0EA"/>
<path d="M7.17683 7.2202H6.50038V6.5H5.92874V9.46736H6.50038V7.78968H7.17683V7.2202Z" fill="#98E0EA"/>
<path d="M12.2809 8.06683H12.2934C12.6841 8.07366 13 8.38839 13 8.78323C13 9.17807 12.6776 9.49963 12.2809 9.49963H11.5991V8.93015H12.2809C12.362 8.93015 12.4284 8.8641 12.4284 8.78323C12.4284 8.70236 12.362 8.6363 12.2809 8.6363H12.2683C11.8777 8.62947 11.5617 8.31474 11.5617 7.9199C11.5617 7.52506 11.8841 7.2035 12.2809 7.2035H12.9615V7.77297H12.2809C12.1997 7.77297 12.1334 7.83903 12.1334 7.9199C12.1334 8.00077 12.1997 8.06683 12.2809 8.06683Z" fill="#98E0EA"/>
</svg>
