<?xml version="1.0" encoding="UTF-8"?>
<svg version="1.1" viewBox="0 0 2048 669" width="1284" height="420" xmlns="http://www.w3.org/2000/svg">
<path transform="translate(0)" d="m0 0h2048v669h-2048z" fill="#486BA8"/>
<path transform="translate(278,117)" d="m0 0h26l26 3 25 6 5 3-1 27h-39v39h39l1 1v38h39v39l-1 1h-38v25l-1 14h-38l-1 39h-39v39h39v39h39l1 1v38h43l2 7 5 30 7 28 2 7-1 7-5 4h-155l-4-4-11-44-7-16-6-5-9-3-7-1h-12l-36 3-15-2-9-5-6-7-4-10-3-20-4-27-5-14-6-8-16-12-4-6v-10l7-9 11-13 7-11 5-11 3-17-1-23-1-25 2-19 5-19 7-16 10-16 12-14 8-8 17-13 19-11 19-8 20-6 23-4z" fill="#DAE6F0"/>
<path transform="translate(1217,188)" d="m0 0h30v143h-29l-1-1-1-7-10 7-9 3h-17l-13-4-12-7-7-7-6-10-4-10-2-12v-9l2-12 5-12 4-6 6-7 10-7 9-4 8-2h16l11 4 9 6z" fill="#FFFFFF"/>
<path transform="translate(1494,224)" d="m0 0h13l13 4 11 8 8 10 6-8 9-8 12-5 5-1h13l11 3 10 6 6 7 6 12 2 8 1 9v62h-30l-1-64-4-10-5-4-5-2h-12l-8 4-6 7-3 6-1 10-1 53h-29l-1-62-4-10-5-5-6-3h-12l-8 4-6 7-3 8-1 61h-29l-1-1v-104h30l1 15 7-9 10-6z" fill="#FFFFFF"/>
<path transform="translate(875,224)" d="m0 0h12l10 3 10 6 9 9 3 4 4-6 8-8 12-6 8-2h13l13 4 8 6 8 9 5 13 2 17v57l-1 1h-29l-1-64-4-10-5-4-5-2h-12l-8 4-6 7-4 9-1 60h-29l-1-60-2-8-5-8-8-4h-12l-8 4-6 7-3 7-1 62h-29l-1-1v-104h30l1 15 7-9 10-6z" fill="#FFFFFF"/>
<path transform="translate(1727,224)" d="m0 0h16l11 4 8 6 1 1 1-9 27-1 2 1v105h-29l-1-9-7 6-9 4-4 1h-17l-15-5-13-9-9-12-5-14-1-5v-20l4-14 7-11 9-9 11-6z" fill="#FFFFFF"/>
<path transform="translate(1063,224)" d="m0 0h16l13 4 9 5 10 9 6 10 4 10 1 6v20l-1 1-75 1 5 9 5 4 9 4h19l11-4 6-1 14 14-2 4-8 6-12 5-9 2h-20l-12-3-14-7-10-9-4-5-6-12-2-7-1-13 2-13 4-11 7-10 10-9 16-8z" fill="#F9FAFB"/>
<path transform="translate(743,224)" d="m0 0h15l11 3 12 6 9 8 6 9 4 9 2 10v19l-1 1-75 1 4 8 7 6 8 3 12 1 11-2 9-4 4 1 12 11 2 4-10 8-12 5-9 2h-20l-15-4-11-6-10-9-6-8-5-12-2-11 1-17 5-13 7-10 7-7 14-8 9-3z" fill="#F9FAFB"/>
<path transform="translate(1317,225)" d="m0 0h27l2 2v53l1 14 3 7 5 4 2 1h11l9-4 8-8 4-9v-59h30v105h-29l-1-16-9 10-14 7-3 1h-14l-13-5-8-6-7-10-4-12-1-8v-66z" fill="#FFFFFF"/>
<path transform="translate(668,224)" d="m0 0h14v29h-12l-10 3-10 6-6 8-4 9-1 6-1 46h-29l-1-17v-51l1-37h29l1 21 7-11 8-7 10-4z" fill="#FAFBFB"/>
<path transform="translate(1268,225)" d="m0 0h28l1 1v105h-29l-1-1v-104z" fill="#FFFFFF"/>
<path transform="translate(1814,225)" d="m0 0h29v106h-29z" fill="#FFFFFF"/>
<path transform="translate(1187,250)" d="m0 0h11l10 4 7 8 4 11v11l-4 11-7 8-9 4h-13l-12-6-5-6-4-10v-13l4-10 6-7 8-4z" fill="#496CA9"/>
<path transform="translate(1733,250)" d="m0 0h11l10 4 5 4 5 9 1 4v15l-4 10-7 7-9 4h-12l-10-4-5-4-4-6-3-12 1-11 4-9 7-7z" fill="#496CA9"/>
<path transform="translate(890,429)" d="m0 0h13l10 5 6 7 3 7v13l-5 10-7 6-8 3h-12l-10-5-7-8-3-10 1-11 5-8 8-7z" fill="#F7F8FA"/>
<path transform="translate(610,429)" d="m0 0h18l9 2 9 6 5 8 1 3v12l-4 9-9 8-5 2-8 1h-17v-50z" fill="#F6F8FA"/>
<path transform="translate(1322,429)" d="m0 0h10l4 10 5 15v3h2l2-9 6-15 2-4h7l3 4 8 22 1 1 8-24 2-3h10l-1 7-14 42-2 2h-6l-4-8-8-22-7 18-4 10-4 2h-4l-6-16-11-34z" fill="#F7F9FA"/>
<path transform="translate(373,304)" d="m0 0h40v40h-39l-1-1z" fill="#FFF"/>
<path transform="translate(379,408)" d="m0 0h40v39l-1 1h-38l-1-1z" fill="#FFFFFF"/>
<path transform="translate(417,356)" d="m0 0h39v40h-39z" fill="#FFF"/>
<path transform="translate(331,352)" d="m0 0h40v39h-40z" fill="#FFF"/>
<path transform="translate(420,267)" d="m0 0h40v39h-40z" fill="#FFF"/>
<path transform="translate(385,153)" d="m0 0h17l6 1v39h-39v-39z" fill="#FFF"/>
<path transform="translate(464,432)" d="m0 0h14l6 1v39h-39v-39z" fill="#FFF"/>
<path transform="translate(475,220)" d="m0 0h39v39l-39 1z" fill="#FFF"/>
<path transform="translate(418,182)" d="m0 0h39l1 38-1 1h-39z" fill="#FFF"/>
<path transform="translate(254,263)" d="m0 0h39v39h-39z" fill="#496CA9"/>
<path transform="translate(205,195)" d="m0 0h39v39h-39z" fill="#486BA8"/>
<path transform="translate(265,440)" d="m0 0h38v39h-38l-1-1v-36z" fill="#496CA9"/>
<path transform="translate(930,429)" d="m0 0h18l9 2 6 5 3 8-1 9-7 8 7 11 4 7h-12l-10-15-7-1v16l-1 1h-9l-1-1v-49z" fill="#F7F9FA"/>
<path transform="translate(284,210)" d="m0 0h38v39h-38z" fill="#496CA9"/>
<path transform="translate(1196,429)" d="m0 0h7l5 5 11 13 8 10 1-27 1-1h10v50l-5 1-5-2-11-14-10-13-1 28-2 1h-9z" fill="#F7F9FA"/>
<path transform="translate(1549,429)" d="m0 0h7l4 4 13 28 7 16-1 3h-8l-4-4-1-5h-25l-2 6-2 3h-10l-1-2 12-26 9-20z" fill="#F7F8FA"/>
<path transform="translate(1103,429)" d="m0 0h8l4 5 16 36 3 9-1 1h-7l-4-2-2-4v-3h-25l-2 7-4 2-8-1 3-9 16-36z" fill="#F7F8FA"/>
<path transform="translate(679,429)" d="m0 0h8l5 8 18 40v2h-12l-2-5v-3h-25l-2 6-2 3h-10l-1-2 11-24 9-20z" fill="#F7F9FA"/>
<path transform="translate(777,429)" d="m0 0h8l8 16 14 31v3h-11l-4-8h-24l-1 5-2 4-11-1 2-6 12-27 8-16z" fill="#F7F9FA"/>
<path transform="translate(997,429)" d="m0 0h10v20h20v-20h10l1 1v49l-1 1h-10l-1-20-19-1v20l-1 1h-9l-1-1v-49z" fill="#F6F8FA"/>
<path transform="translate(1458,429)" d="m0 0h11v20h19l1-20h10l1 1v49l-1 1h-10v-21h-20v20l-1 1h-9l-1-1z" fill="#F6F8FA"/>
<path transform="translate(1266,429)" d="m0 0h13l10 5-2 4-5 4-4-2h-10l-6 4-3 5v11l3 5 4 3 3 1h8l6-4 1-2-11-1v-9h22v8l-3 9-4 5-10 5h-12l-10-5-7-8-3-9v-7l3-9 7-8 7-4z" fill="#F6F8FA"/>
<path transform="translate(1046,429)" d="m0 0h30l1 1v9h-20v10h13l2 1v9h-15v10h17l4 1v9l-6 1h-25l-1-1z" fill="#F7F9FA"/>
<path transform="translate(835,429)" d="m0 0h31v10h-20v11h17v8l-1 1h-16v20l-1 1h-10l-1-1v-49z" fill="#F5F8F9"/>
<path transform="translate(1647,299)" d="m0 0h10l8 5 4 8v7l-4 8-5 4-3 1h-10l-6-4-4-5-2-5 1-8 4-6 5-4z" fill="#F9FAFA"/>
<path transform="translate(1416,429)" d="m0 0h35l1 1v9l-12 1-1 40h-10l-1-1v-40h-12z" fill="#F7F9FA"/>
<path transform="translate(715,429)" d="m0 0h35l1 1v9l-12 1-1 40h-10l-1-1v-40h-12z" fill="#F8F9FA"/>
<path transform="translate(1140,429)" d="m0 0h10l1 1v39h18l1 1v9l-1 1h-28l-1-1z" fill="#F5F7F9"/>
<path transform="translate(1267,188)" d="m0 0h30v25h-29l-1-1z" fill="#F7F8FA"/>
<path transform="translate(892,439)" d="m0 0h9l6 4 4 7v9l-5 8-6 3h-8l-6-4-4-6v-11l3-5 4-4z" fill="#496CA9"/>
<path transform="translate(1814,188)" d="m0 0h29v25h-29z" fill="#FFFFFF"/>
<path transform="translate(745,249)" d="m0 0h11l9 4 6 5 4 7v3h-49l1-5 6-8 6-4z" fill="#496CA9"/>
<path transform="translate(1066,249)" d="m0 0h10l10 4 7 8 2 4v3h-49l2-6 7-8 7-4z" fill="#496CA9"/>
<path transform="translate(1177,429)" d="m0 0h10l1 1v49l-1 1h-9l-1-1z" fill="#FFF"/>
<path transform="translate(1399,429)" d="m0 0h10v51h-10l-1-1v-49z" fill="#FFF"/>
<path transform="translate(620,440)" d="m0 0h12l5 3 4 6v10l-4 7-5 3h-12z" fill="#496CA9"/>
<path transform="translate(1586,429)" d="m0 0h9l2 2v47l-1 2h-9l-1-1-1-32v-17z" fill="#FFF"/>
<path transform="translate(254,263)" d="m0 0h39v39h-39zm26 2-20 1-4 3v28l5 3h23l5-2 1-3 1-19-1-8-4-3z" fill="#375DA1"/>
<path transform="translate(265,440)" d="m0 0h38v39h-38l-1-1v-36zm7 2-4 1-2 9v18l2 5 3 2h23l6-2 1-1v-27l-1-3-3-2z" fill="#385DA1"/>
<path transform="translate(373,304)" d="m0 0h40v40h-39l-1-1zm9 2-5 2-2 2v32h32l3-2 1-3v-22l-1-7-3-2z" fill="#ECF1F6"/>
<path transform="translate(284,210)" d="m0 0h38v39h-38zm5 2-4 5v25l2 4 11 1h19l3-2 1-19-1-11-6-3z" fill="#355BA0"/>
<path transform="translate(417,356)" d="m0 0h39v39h-38v-1l33-1 2-6-1-26-1-1-12-1-17 1-3 3-1 6h-1z" fill="#FCFCFC"/>
<path transform="translate(257,552)" d="m0 0h84l70 1v1l-74 1h-43l-35-1z" fill="#375CA0"/>
<path transform="translate(206,196)" d="m0 0h38v38h-28v-2l23-1 2-16v-8l-2-7-8-1h-23l-1 7h-1z" fill="#375DA1"/>
<path transform="translate(123,315)" d="m0 0 1 4-8 16-11 13-10 13v10l4 6 12 9 5 4 6 9 2 5v5l-2-1-8-16-3-1-5-5-10-8-4-7v-12l6-9h2v-2l5-5 8-10 4-4z" fill="#385DA1"/>
<path transform="translate(331,352)" d="m0 0 17 1v1l-13 2-1 4v29h33l1-4v-29l-1-3 4-1v39h-40z" fill="#ECF1F6"/>
<path transform="translate(475,220)" d="m0 0h39v39h-9l4-2 2-5v-29h-27l-5 2-2 9h-1z" fill="#FCFCFC"/>
<path transform="translate(202,478)" d="m0 0h12l14 3 6 4 4 5 6 14 6 24v7h-1l-7-27-5-13-5-7v-2l-4-2-10-3h-19l-12 1h-11l3-2z" fill="#395EA1"/>
<path transform="translate(941,439)" d="m0 0h8l5 3 1 7-4 4-2 1h-8l-1-1v-13z" fill="#496CA9"/>
<path transform="translate(380,409)" d="m0 0h16v1l-11 1-4 1v34l33-1 2-5v-17l-1-12-9-1v-1h12v39h-38z" fill="#F7F9FA"/>
<path transform="translate(385,153)" d="m0 0h17l6 1-1 38h-10v-1l7-2 1-2v-30h-31l-4 3-1-1v-5z" fill="#F8F9FA"/>
<path transform="translate(464,432)" d="m0 0h14l5 1v38h-6l3-1 1-6v-22l-1-5-7-2-22 1-4 2-2 2v-7z" fill="#FCFCFC"/>
<path transform="translate(682,444)" d="m0 0h2l7 16v2h-16l2-6z" fill="#496CA9"/>
<path transform="translate(780,444)" d="m0 0h2l7 18h-16l3-9z" fill="#486BA8"/>
<path transform="translate(1107,443)" d="m0 0 2 2 6 15v2h-15l1-5z" fill="#496CA9"/>
<path transform="translate(1552,444)" d="m0 0h2l7 16v2h-16z" fill="#496CA9"/>
<path transform="translate(372,304)" d="m0 0h1l1 39 39 1-4 2-10 1-25-1-3-5v-33z" fill="#33599F"/>
<path transform="translate(284,211)" d="m0 0h11v1l-7 2-2 3v25l1 3 11 1h14l3 2-3 1h-28z" fill="#33599F"/>
<path transform="translate(321,156)" d="m0 0h38v1l-23 1h-13v34l36 1v1h-38z" fill="#33599F"/>
<path transform="translate(321,391)" d="m0 0h1l1 23 1 10 4 3 26 1 5 1v1h-38z" fill="#33599F"/>
<path transform="translate(321,312)" d="m0 0h37l1 2-29 1-7 1-1 33h-1z" fill="#395EA1"/>
<path transform="translate(370,273)" d="m0 0h11l18 1v1l-7 1-28 1-2 2-1 33h-1v-38z" fill="#345A9F"/>
<path transform="translate(441,182)" d="m0 0h16l1 38-4 1-4-2 3-2 1-3v-25l-1-4-12-2z" fill="#FBFBFB"/>
<path transform="translate(281,352)" d="m0 0h37l1 2-31 1-4 2-1 31h-1z" fill="#33599F"/>
<path transform="translate(281,353)" d="m0 0h1v35l3-1 2 1 30 1v1l-7 1h-29z" fill="#4064A4"/>
<path transform="translate(390,235)" d="m0 0h8v39h-17l-18-1v-1l30-1 2-1 1-3v-31h-6z" fill="#F6F8FA"/>
<path transform="translate(475,220)" d="m0 0h39v1l-5 1-25 1-5 2-2 9h-1z" fill="#EFF3F7"/>
<path transform="translate(417,356)" d="m0 0h39v1l-16 1-1 1-17 1-3 3-1 6h-1z" fill="#EFF3F7"/>
<path transform="translate(242,215)" d="m0 0h1v19h-27v-2l23-1 2-15z" fill="#33599F"/>
<path transform="translate(420,267)" d="m0 0 8 1-4 2-1 3v32l-3 1z" fill="#EDF2F7"/>
<path transform="translate(355,128)" d="m0 0 5 1-1 26h-24v-1l20-1 1-3v-18z" fill="#FBFBFB"/>
<path transform="translate(360,430)" d="m0 0h1l1 36 2 1h23l16 1v1h-43z" fill="#33599F"/>
<path transform="translate(129,219)" d="m0 0h1l-1 9-2 12-2 22h-1l-1-5v-12l4-21z" fill="#385DA1"/>
<path transform="translate(464,432)" d="m0 0h14l-3 2-5 1-19 1-4 2-2 2v-7z" fill="#F6F8F9"/>
<path transform="translate(296,392)" d="m0 0h24v34h-1l-2-32-21-1z" fill="#FCFCFC"/>
<path transform="translate(411,518)" d="m0 0 2 1 6 22-1 7-3 3h-5l5-6-1-11-3-12z" fill="#EDF2F6"/>
<path transform="translate(417,396)" d="m0 0h40l-2 2-9 1-28-1z" fill="#33599F"/>
<path transform="translate(360,195)" d="m0 0h1l1 36 30 1v1l-32 1z" fill="#33599F"/>
<path transform="translate(406,409)" d="m0 0h12v38h-6l3-3 1-4v-17l-1-12-9-1z" fill="#FCFCFC"/>
<path transform="translate(131,457)" d="m0 0 2 1 5 12 7 6 6 3 8 2v1l-9-1-12-6-6-10z" fill="#385DA1"/>
<path transform="translate(332,352)" d="m0 0 16 1v1l-13 2-1 4v29l-2 1z" fill="#FCFCFC"/>
<path transform="translate(319,315)" d="m0 0h1v36h-8l5-4 1-22z" fill="#F6F8F9"/>
<path transform="translate(391,405)" d="m0 0h19l4 2-7 1h-24l1-2z" fill="#33599F"/>
<path transform="translate(358,276)" d="m0 0h1v37l-17-1v-1l13-1 2-7z" fill="#FBFBFB"/>
<path transform="translate(338,431)" d="m0 0h21v37h-1l-1-32-1-3-18-1z" fill="#FCFCFC"/>
<path transform="translate(371,358)" d="m0 0 2 1 1 17-1 11-2-1z" fill="#33599F"/>
<path transform="translate(457,267)" d="m0 0h2v38h-6l3-1 1-3v-28l-1-5z" fill="#FCFCFC"/>
<path transform="translate(265,470)" d="m0 0h2l2 5 2 1h20l1 2h-27z" fill="#33599F"/>
<path transform="translate(243,509)" d="m0 0 3 2 4 17v7h-1l-6-23z" fill="#385DA1"/>
<path transform="translate(136,464)" d="m0 0 4 5 9 7 4 3-6-1-6-4-5-6z" fill="#EFF4F7"/>
<path transform="translate(354,196)" d="m0 0h5v36h-1l-1-31-1-3z" fill="#FCFCFC"/>
<path transform="translate(255,297)" d="m0 0 6 2 19 1v1l-25 1z" fill="#33599F"/>
<path transform="translate(416,541)" d="m0 0h3l-1 7-3 3h-5l5-6z" fill="#F1F5F8"/>
</svg>
