<!-- 
<svg width="200" height="200" xmlns="http://www.w3.org/2000/svg">
  
  <rect x="130" y="40" width="15" height="15" fill="#5D7BC3" />
  <rect x="150" y="40" width="15" height="15" fill="#5D7BC3" />
  <rect x="130" y="60" width="15" height="15" fill="#5D7BC3" />
  <rect x="150" y="60" width="15" height="15" fill="#5D7BC3" />
  <rect x="170" y="60" width="15" height="15" fill="#5D7BC3" />
  <rect x="130" y="80" width="15" height="15" fill="#5D7BC3" />
  <rect x="150" y="80" width="15" height="15" fill="#5D7BC3" />
  <rect x="170" y="80" width="15" height="15" fill="#5D7BC3" />
  <rect x="150" y="100" width="15" height="15" fill="#5D7BC3" />
  <rect x="130" y="100" width="15" height="15" fill="#5D7BC3" />
</svg>
-->

<svg width="200" height="200" xmlns="http://www.w3.org/2000/svg">
  <!-- Background color -->
  <rect width="200" height="200" fill="#2A4373" />

  <!-- Pixel grid for the head shape -->
  <!-- Light blue head pixels -->
  <rect x="60" y="40" width="20" height="20" fill="#B2C2FF" />
  <rect x="80" y="40" width="20" height="20" fill="#B2C2FF" />
  <rect x="100" y="40" width="20" height="20" fill="#B2C2FF" />
  
  <rect x="40" y="60" width="20" height="20" fill="#B2C2FF" />
  <rect x="60" y="60" width="20" height="20" fill="#B2C2FF" />
  <rect x="80" y="60" width="20" height="20" fill="#B2C2FF" />
  <rect x="100" y="60" width="20" height="20" fill="#B2C2FF" />

  <rect x="40" y="80" width="20" height="20" fill="#B2C2FF" />
  <rect x="60" y="80" width="20" height="20" fill="#B2C2FF" />
  <rect x="80" y="80" width="20" height="20" fill="#B2C2FF" />
  <rect x="100" y="80" width="20" height="20" fill="#B2C2FF" />

  <rect x="40" y="100" width="20" height="20" fill="#B2C2FF" />
  <rect x="60" y="100" width="20" height="20" fill="#B2C2FF" />
  <rect x="80" y="100" width="20" height="20" fill="#B2C2FF" />
  <rect x="100" y="100" width="20" height="20" fill="#B2C2FF" />

  <rect x="40" y="120" width="20" height="20" fill="#B2C2FF" />
  <rect x="60" y="120" width="20" height="20" fill="#B2C2FF" />
  <rect x="80" y="120" width="20" height="20" fill="#B2C2FF" />
  <rect x="100" y="120" width="20" height="20" fill="#B2C2FF" />
  <rect x="120" y="120" width="20" height="20" fill="#B2C2FF" />

  <rect x="60" y="140" width="20" height="20" fill="#B2C2FF" />
  <rect x="80" y="140" width="20" height="20" fill="#B2C2FF" />
  <rect x="100" y="140" width="20" height="20" fill="#B2C2FF" />

  <!-- Pixelated effect on the right side (darker blue pixels) -->
  <rect x="120" y="40" width="20" height="20" fill="#5D7BC3" />
  <rect x="140" y="40" width="20" height="20" fill="#5D7BC3" />
  
  <rect x="120" y="60" width="20" height="20" fill="#5D7BC3" />
  <rect x="140" y="60" width="20" height="20" fill="#5D7BC3" />
  <rect x="160" y="60" width="20" height="20" fill="#5D7BC3" />

  <rect x="120" y="80" width="20" height="20" fill="#5D7BC3" />
  <rect x="140" y="80" width="20" height="20" fill="#5D7BC3" />
  <rect x="160" y="80" width="20" height="20" fill="#5D7BC3" />

  <rect x="120" y="100" width="20" height="20" fill="#5D7BC3" />
  <rect x="140" y="100" width="20" height="20" fill="#5D7BC3" />

  <rect x="140" y="120" width="20" height="20" fill="#5D7BC3" />
</svg>

